<svg width="156" height="34" viewBox="0 0 156 34" fill="none" xmlns="http://www.w3.org/2000/svg">
<g clip-path="url(#clip0_427_104)">
<mask id="mask0_427_104" style="mask-type:luminance" maskUnits="userSpaceOnUse" x="0" y="0" width="156" height="34">
<path d="M156 0H0V34H156V0Z" fill="white"/>
</mask>
<g mask="url(#mask0_427_104)">
<path d="M73.6093 0V16.5202L73.4034 16.3831C72.0999 15.1492 70.5222 14.5323 68.8075 14.5323C68.7391 14.5323 68.7391 14.5323 68.67 14.5323C68.8075 15.0807 68.6016 15.629 68.1213 15.9717C67.847 16.1774 67.504 16.246 67.1609 16.246C67.1609 16.3831 67.1609 16.5887 67.1609 16.7258C66.9551 18.3024 65.4459 19.3992 63.8681 19.1936C63.1135 19.0564 62.496 18.7137 62.0844 18.1653C61.81 18.4395 61.3984 18.6452 60.9868 18.6452C59.8206 20.2903 59.2031 22.2097 59.2031 24.2661C59.2031 26.8024 60.2322 29.2702 62.0158 31.121C63.8681 32.9718 66.3377 33.9314 68.8759 33.9314C70.3169 33.9314 71.9631 33.7258 73.4725 32.2863L73.6784 32.0807V33.8629H78.5486V4.86693C78.5486 3.49597 77.9999 2.2621 77.1084 1.43952C76.2162 0.548387 74.9818 0 73.6093 0ZM68.8759 28.7218C66.4063 28.7218 64.3482 26.5967 64.3482 24.0605C64.3482 21.5242 66.4063 19.3992 68.8759 19.3992C71.3459 19.3992 73.4034 21.5242 73.4034 24.0605C73.4034 26.5967 71.3459 28.7218 68.8759 28.7218Z" fill="#384337"/>
<path d="M68.8774 21.1133C67.2995 21.1133 65.9961 22.4842 65.9961 24.0609C65.9961 25.6375 67.2995 27.0085 68.8774 27.0085C70.4552 27.0085 71.7586 25.7061 71.7586 24.0609C71.7586 22.4842 70.3867 21.1133 68.8774 21.1133Z" fill="#384337"/>
<path d="M91.0352 14.395C89.7318 14.395 88.3599 14.8063 87.1249 16.1088V14.8063H82.1172V33.8627H87.1249V23.3063C87.1249 20.77 89.6633 18.8507 92.2011 19.6047C93.848 20.1531 94.9455 21.7297 94.9455 23.4434V33.7257H100.022V23.3063C100.022 20.9071 99.1301 18.7136 97.4148 16.9313C95.7001 15.2862 93.4361 14.395 91.0352 14.395Z" fill="#384337"/>
<path d="M30.1164 10.1452H30.871V5.27825H32.3117V4.59277H28.6758V5.27825H30.1164V10.1452Z" fill="#384337"/>
<path d="M40.3364 7.26619H43.2177V10.1452H43.9037V4.59277H43.2177V6.58068H40.3364V4.59277H39.6504V10.1452H40.3364V7.26619Z" fill="#384337"/>
<path d="M55.0863 9.45974H52.3422V7.26619H54.8119V6.58068H52.3422V5.27825H55.1549V4.59277H51.6562V10.1452H55.0863V9.45974Z" fill="#384337"/>
<path d="M68.7391 7.2666H57.3516V7.4722H68.7391V7.2666Z" fill="#384337"/>
<path d="M27.0988 7.2666H15.7109V7.4722H27.0988V7.2666Z" fill="#384337"/>
<path d="M153.394 16.9998C151.679 15.3547 149.415 14.395 147.083 14.395C145.916 14.395 144.75 14.6692 143.652 15.1491C142.555 15.6289 141.594 16.3144 140.771 17.1369C140.703 17.2055 140.703 17.2055 140.703 17.2055C140.634 17.1369 140.634 17.1369 140.634 17.1369C139.742 16.3144 138.782 15.6289 137.753 15.1491C136.655 14.6692 135.489 14.395 134.323 14.395C133.02 14.395 131.647 14.8063 130.412 16.1088V14.8063H125.404V33.9998H130.412V23.3748C130.412 21.5926 131.579 19.9474 133.294 19.4676C135.832 18.7821 138.233 20.8386 138.233 23.3748V33.9998H143.241V23.5805C143.241 22.0724 143.927 20.7015 145.23 19.8789C148.043 18.1652 151.13 20.4958 151.13 23.3063V33.9313H156.138V23.3063C156.001 20.9757 155.109 18.7136 153.394 16.9998Z" fill="#384337"/>
<path d="M120.533 28.7216C121.287 27.3507 121.63 25.8426 121.63 24.1974C121.63 18.7821 117.24 14.395 111.82 14.395C106.4 14.395 102.01 18.7821 102.01 24.1974C102.01 29.6127 106.4 33.9998 111.82 33.9998C114.015 33.9998 116.005 33.3144 117.582 32.0805L121.63 33.1772L120.533 28.7216ZM108.939 24.9515C108.527 24.9515 108.184 24.6088 108.184 24.1974C108.184 23.7862 108.527 23.4434 108.939 23.4434C109.351 23.4434 109.693 23.7862 109.693 24.1974C109.693 24.6088 109.351 24.9515 108.939 24.9515ZM111.958 24.9515C111.546 24.9515 111.203 24.6088 111.203 24.1974C111.203 23.7862 111.546 23.4434 111.958 23.4434C112.369 23.4434 112.712 23.7862 112.712 24.1974C112.712 24.6088 112.369 24.9515 111.958 24.9515ZM114.907 24.9515C114.495 24.9515 114.152 24.6088 114.152 24.1974C114.152 23.7862 114.495 23.4434 114.907 23.4434C115.318 23.4434 115.662 23.7862 115.662 24.1974C115.662 24.6088 115.318 24.9515 114.907 24.9515Z" fill="#384337"/>
<path d="M50.2159 14.8755C49.4613 14.6698 48.7067 14.4642 47.8835 14.3956C45.3453 14.2586 42.8756 15.1497 41.0234 16.7948C40.8862 16.9319 40.6804 17.0691 40.5431 17.2061C39.2397 18.5771 38.3479 20.2222 37.9363 22.0045V22.0731C37.9363 22.1416 37.9363 22.1416 37.9363 22.2101C37.8677 22.6215 37.7991 23.0327 37.7305 23.5126C37.7305 23.8553 37.7305 24.1295 37.7305 24.4722C37.7305 24.6779 37.7991 24.9521 37.7991 25.1577C37.8677 25.9118 38.0735 26.6658 38.3479 27.4198C38.4165 27.4884 38.4165 27.6255 38.4851 27.6941C38.5537 27.8311 38.6223 27.9682 38.6909 28.1053C38.8967 28.5166 39.1025 28.9279 39.377 29.3392C39.377 29.3392 39.377 29.3392 39.377 29.4077C39.4455 29.5448 39.5141 29.6134 39.5827 29.7505C39.8571 30.1618 40.2001 30.5045 40.5431 30.9158C40.8862 31.19 41.2292 31.4642 41.5722 31.7384C42.7384 32.6295 44.1105 33.2465 45.5511 33.5206C45.6882 33.5892 45.8941 33.5892 46.0312 33.5892L46.3057 31.19C46.4429 30.0932 46.5801 28.9965 46.7173 27.8997C46.7173 27.6941 46.7173 27.6255 46.5115 27.5569C45.2081 27.1456 44.3162 25.9803 44.3162 24.6779C44.3162 23.4441 44.3162 22.1416 44.3162 20.9077C44.3162 20.4965 44.5906 20.2222 44.9336 20.2222C45.2766 20.2222 45.5511 20.4965 45.5511 20.9077C45.5511 21.936 45.5511 22.9642 45.5511 23.9924C45.5511 24.4722 46.0312 24.815 46.4429 24.6094C46.7173 24.4722 46.8545 24.2666 46.8545 23.9924C46.8545 23.0327 46.8545 22.0045 46.8545 21.0448C46.8545 20.9763 46.8545 20.8392 46.8545 20.7706C46.9231 20.4279 47.1975 20.2222 47.5405 20.2908C47.8835 20.2908 48.0893 20.565 48.0893 20.9077C48.0893 21.936 48.0893 22.9642 48.0893 23.9924C48.0893 24.2666 48.2265 24.4722 48.4323 24.6094C48.844 24.815 49.3241 24.4722 49.3241 23.9924C49.3241 23.0327 49.3241 22.0045 49.3241 21.0448C49.3241 20.9763 49.3241 20.9077 49.3241 20.7706C49.3928 20.4279 49.6671 20.2222 50.0102 20.2908C50.3532 20.2908 50.559 20.565 50.6276 20.8392C50.6276 20.9077 50.6276 20.9763 50.6276 21.1134V24.4722C50.6276 25.9803 49.8729 27.0771 48.4323 27.6255H48.3637C48.3637 27.8997 48.4323 28.1739 48.4323 28.5166C48.5695 30.2303 48.7753 31.9441 48.9125 33.6577C49.0498 33.6577 49.187 33.5892 49.3241 33.5892C49.8729 33.4521 50.4218 33.315 50.9706 33.1094C51.0392 33.1094 51.1078 33.0408 51.1764 33.0408C51.245 32.9722 51.3822 32.9722 51.4508 32.9037C51.588 32.8351 51.7252 32.7666 51.931 32.6981C51.9996 32.6981 51.9996 32.6981 51.9996 32.6295C52.2054 32.561 52.3426 32.4239 52.5484 32.2868L52.617 32.2182C53.0972 31.9441 53.5088 31.6013 53.9205 31.2586C54.7437 30.5045 55.4983 29.6134 55.9785 28.6537C56.7331 27.2827 57.1447 25.7061 57.1447 24.1295C57.1447 21.5247 56.1157 19.1255 54.2635 17.2747C53.0972 16.1094 51.7252 15.2868 50.2159 14.8755Z" fill="#384337"/>
<path d="M30.8025 17.2055C28.9502 15.4232 26.4806 14.395 23.9424 14.395C21.4727 14.395 19.003 15.4232 17.0822 17.2055C15.6416 18.7136 14.6812 20.6329 14.4067 22.6208C14.3381 23.1007 14.2695 23.5805 14.2695 24.0603C14.2695 24.5402 14.3381 25.02 14.4067 25.4313C14.6125 27.0079 15.2985 28.516 16.2589 29.8184C16.5334 30.1612 16.8077 30.5039 17.1508 30.8466C17.7682 31.4636 18.5228 31.9434 19.2774 32.4233C19.346 32.4918 19.4832 32.4918 19.5518 32.5603C19.6205 32.6289 19.7577 32.6289 19.8263 32.6974C19.9635 32.766 20.1006 32.8345 20.3065 32.9031C20.4436 32.9716 20.5809 33.0402 20.7181 33.0402H20.7866C21.4041 33.2458 22.0215 33.4515 22.6389 33.52H22.7075C22.7075 33.3829 22.7075 33.2458 22.7761 33.1088C22.9819 31.5321 23.1191 29.9555 23.3249 28.3789C23.3249 28.1733 23.3935 27.8991 23.3935 27.6934C23.3935 27.6248 23.3249 27.5563 23.3249 27.5563C22.0215 27.0765 21.3355 26.1168 21.0611 24.8829C20.7866 23.6491 20.9924 22.4838 21.7471 21.4555C23.0506 19.7418 25.2458 19.8103 26.4806 21.5926C27.5096 23.1007 27.441 25.2257 26.2748 26.6652C25.9318 27.0765 25.5888 27.3507 25.1086 27.5563C24.9713 27.6248 24.9713 27.6934 24.9713 27.8305C25.1086 29.1329 25.2458 30.4353 25.3144 31.8063C25.383 32.4233 25.4516 33.1088 25.5202 33.7257C27.5782 33.4515 29.4305 32.4918 30.8711 30.9838C32.7234 29.1329 33.7524 26.7338 33.7524 24.1289C33.7524 21.9353 33.0664 19.8789 31.6943 18.2338C31.4199 17.8224 31.1455 17.4797 30.8025 17.2055Z" fill="#384337"/>
<path d="M9.2612 4.72984H12.8285L14.0633 0H9.12401C7.40897 0 5.76253 0.685484 4.4591 1.91936C3.29287 3.08467 2.60686 4.72984 2.60686 6.5121V15.0121H0V19.125H2.60686V33.7258H7.61478V19.125H12.8285V15.0121H7.4776V6.58064C7.4776 5.62097 8.3694 4.72984 9.2612 4.72984Z" fill="#384337"/>
</g>
</g>
<defs>
<clipPath id="clip0_427_104">
<rect width="156" height="34" fill="white"/>
</clipPath>
</defs>
</svg>
