<svg width="12" height="12" viewBox="0 0 12 12" fill="none" xmlns="http://www.w3.org/2000/svg">
<g clip-path="url(#clip0_529_422)">
<path d="M11.1956 2.98825C10.659 2.06904 9.93124 1.34123 9.01199 0.804699C8.09277 0.268197 7.08889 0 6.00023 0C4.91166 0 3.90772 0.268197 2.9885 0.804699C2.06914 1.34115 1.34134 2.06895 0.804836 2.98825C0.268197 3.90761 0 4.91147 0 6.00007C0 7.21367 0.330696 8.31538 0.992172 9.30476C1.65362 10.2946 2.52082 11.0263 3.59377 11.5002C3.57292 10.943 3.60679 10.4821 3.69526 10.1175L4.46877 6.85162C4.33851 6.59633 4.27341 6.27888 4.27341 5.89849C4.27341 5.45588 4.38531 5.08608 4.60931 4.78912C4.83331 4.49222 5.10671 4.34379 5.42966 4.34379C5.69 4.34379 5.8905 4.42972 6.03118 4.60157C6.17189 4.7735 6.24202 4.98962 6.24202 5.2501C6.24202 5.41144 6.21195 5.60813 6.15202 5.83991C6.09215 6.07171 6.01408 6.33993 5.91773 6.64466C5.82138 6.94928 5.75231 7.19293 5.71069 7.37507C5.63782 7.69271 5.69767 7.96485 5.89039 8.19156C6.08309 8.41808 6.3384 8.5315 6.65613 8.5315C7.2134 8.5315 7.67038 8.22163 8.02726 7.60189C8.38404 6.98195 8.56234 6.22933 8.56234 5.34396C8.56234 4.66155 8.34228 4.10682 7.90207 3.67986C7.46192 3.25273 6.84866 3.03907 6.06213 3.03907C5.18207 3.03907 4.46975 3.32166 3.92548 3.88676C3.38118 4.45194 3.10904 5.12778 3.10904 5.9142C3.10904 6.383 3.24187 6.77631 3.50746 7.09393C3.59599 7.19807 3.62466 7.31005 3.59339 7.42993C3.58296 7.46121 3.56216 7.53931 3.53089 7.66422C3.49975 7.78914 3.47881 7.87006 3.46847 7.90642C3.42685 8.0731 3.32782 8.12517 3.17157 8.06262C2.77057 7.89611 2.46582 7.60695 2.25755 7.19547C2.0492 6.784 1.94499 6.30734 1.94499 5.7658C1.94499 5.41683 2.00101 5.06788 2.11301 4.71896C2.2249 4.3699 2.39946 4.03272 2.63638 3.70717C2.87343 3.38153 3.15728 3.09374 3.48803 2.84385C3.81865 2.59388 4.22104 2.39338 4.69501 2.24233C5.16899 2.09128 5.67936 2.01576 6.22629 2.01576C6.966 2.01576 7.62994 2.17981 8.2184 2.50793C8.80706 2.83608 9.25619 3.2605 9.56614 3.78138C9.8761 4.30228 10.031 4.85961 10.031 5.45336C10.031 6.23458 9.89558 6.93768 9.62484 7.56276C9.35405 8.18773 8.97119 8.67861 8.47628 9.03531C7.98146 9.39219 7.41901 9.57058 6.7886 9.57058C6.47098 9.57058 6.17411 9.49631 5.89795 9.34797C5.62198 9.19946 5.43182 9.02379 5.3277 8.82058C5.0933 9.74234 4.95265 10.292 4.90575 10.469C4.8068 10.8386 4.6037 11.2658 4.29635 11.7502C4.85367 11.9168 5.42134 12 5.99949 12C7.08807 12 8.09204 11.7318 9.01125 11.1952C9.93055 10.6588 10.6584 9.93102 11.1948 9.0118C11.7313 8.09239 11.9995 7.08845 11.9995 5.99996C11.9997 4.91147 11.7319 3.90747 11.1956 2.98825Z" fill="#EADAC5"/>
</g>
<defs>
<clipPath id="clip0_529_422">
<rect width="12" height="12" fill="white"/>
</clipPath>
</defs>
</svg>
